<svg width="1440" height="537" viewBox="0 0 1440 537" fill="none" xmlns="http://www.w3.org/2000/svg">
<g clip-path="url(#clip0)">
<g clip-path="url(#clip1)">
<path d="M191.817 139C245.579 139 292.097 170.783 314.465 217.018C332.761 208 353.945 202.848 376.52 202.848C429.73 202.848 475.2 231.465 493.42 271.851C519.404 223.921 569.641 191.447 627.352 191.447C693.906 191.447 750.522 234.639 771.469 294.912C789.011 288.545 809.036 284.938 830.297 284.938C874.507 284.938 913.374 300.535 935.707 324.098C947.648 262.59 996.48 216.53 1054.91 216.53C1106.95 216.53 1151.38 253.075 1168.91 304.531C1187.69 282.629 1220.37 266.936 1258.69 263.064C1269.12 228.904 1298.86 194.309 1341.39 171.694C1409.77 135.334 1485.34 143.716 1510.17 190.419C1535 237.121 1499.7 304.457 1431.31 340.818C1421.75 345.902 1412.05 350.112 1402.36 353.464C1397.98 397.977 1343.63 433.157 1277.23 433.157C1232.82 433.157 1193.79 417.415 1171.51 393.667C1156.17 449.55 1109.77 490.164 1054.91 490.164C1004.84 490.164 961.826 456.347 943.022 407.97C922.642 436.388 879.822 455.96 830.298 455.96C800.428 455.96 772.996 448.84 751.455 436.953C723.726 476.085 678.471 501.565 627.353 501.565C552.797 501.565 490.715 447.365 477.271 375.669C454.424 402.25 417.801 419.475 376.521 419.475C339.486 419.475 306.2 405.611 283.241 383.565C259.016 405.891 226.965 419.475 191.818 419.475C116.255 419.475 55 356.69 55 279.238C55 201.786 116.255 139 191.817 139Z" fill="#FFC679"/>
</g>
<path fill-rule="evenodd" clip-rule="evenodd" d="M1681.15 -26C1716.41 -26 1745 -0.0669994 1745 31.922C1745 51.877 1733.88 69.475 1716.95 79.892C1720.35 89.328 1722.2 99.415 1722.2 109.894C1722.2 134.175 1712.3 156.346 1696 173.23L1696 560.77L1138 562.323V563H983.24L981.967 563.082C973.559 563.585 965.266 563.546 957.136 563.001H670.681C671.126 563.335 671.566 563.668 672 564L541.975 563.639C537.541 564.116 533.035 564.361 528.468 564.361C523.662 564.361 518.922 564.09 514.264 563.561L-129 561.772V88.578C-155.282 83.014 -175 59.761 -175 31.921C-175 -0.0679989 -148.967 -26 -116.853 -26C-86.217 -26 -61.114 -2.4 -58.869 27.546C-50.223 24.604 -40.966 23.011 -31.342 23.011C16.514 23.011 55.308 62.409 55.308 111.008C55.308 118.645 54.351 126.055 52.55 133.12C57.172 132.495 61.9 132.172 66.71 132.172C118.395 132.172 160.74 169.423 164.492 216.676C183.713 202.716 206.973 194.55 232.031 194.55C298.148 194.55 351.746 251.402 351.746 321.533C351.746 337.22 349.064 352.243 344.161 366.113L344.669 366.099L346.045 366.089C376.842 366.089 403.732 381.759 418.127 405.052C436.28 363.831 478.848 334.9 528.467 334.9C567.197 334.9 601.63 352.525 623.512 379.861C646.733 352.864 683.352 334.18 725.61 331.293C766.835 328.476 804.888 341.279 831.648 363.798C857.849 324.187 906.663 295.781 964.254 291.846C1029.86 287.365 1088.7 315.876 1117.76 360.744C1136.94 337.239 1171.71 321.534 1211.41 321.534C1215.68 321.534 1219.88 321.714 1224.02 322.067C1223.63 319.357 1223.33 316.612 1223.14 313.838C1218.61 250.628 1265.36 195.943 1327.54 191.695C1355.87 189.76 1382.51 198.622 1403.56 214.821C1414.15 175.033 1452.74 145.539 1498.73 145.539C1506.39 145.539 1513.84 146.357 1521 147.904C1515.47 136.254 1512.41 123.4 1512.41 109.894C1512.41 56.989 1559.37 14.1 1617.3 14.1C1618.33 14.1 1619.35 14.113 1620.37 14.14C1628.64 -9.15 1652.73 -26 1681.15 -26V-26Z" fill="#FFF5F1"/>
</g>
<defs>
<clipPath id="clip0">
<rect width="1440" height="537" fill="white"/>
</clipPath>
<clipPath id="clip1">
<rect width="1385" height="363" fill="white" transform="translate(55 139)"/>
</clipPath>
</defs>
</svg>
