<svg xmlns="http://www.w3.org/2000/svg" width="360" height="694" viewBox="0 0 360 694">
    <path fill="#FFF" d="M544.828-25.75c72.73 14.132 133.75 55.014 175.582 111.062 5.005-8.827 10.552-17.266 16.589-25.29l.003 633.234H-698.86c-1.384-.637-2.764-1.28-4.139-1.93V35.06c76.444-28.388 164.877-36.646 255.246-19.087 159.54 30.998 283.327 134.339 331.814 260.303l1.441 3.812 1.921-1.66c64.037-54.711 168.552-75.755 274.846-47.274 10.746 2.88 21.223 6.188 31.405 9.892.894-7.262 2.052-14.549 3.471-21.847C229.485 52.89 385.148-56.776 544.828-25.75z"/>
</svg>
