<svg width="323" height="694" viewBox="0 0 323 694" fill="none" xmlns="http://www.w3.org/2000/svg">
<g clip-path="url(#clip0)">
<path d="M507.828 -25.75C580.558 -11.618 641.578 29.264 683.41 85.312C688.415 76.485 693.962 68.046 699.999 60.022L700.002 693.256H-735.86C-737.244 692.619 -738.624 691.976 -739.999 691.326V35.06C-663.555 6.672 -575.122 -1.586 -484.753 15.973C-325.213 46.971 -201.426 150.312 -152.939 276.276L-151.498 280.088L-149.577 278.428C-85.54 223.717 18.975 202.673 125.269 231.154C136.015 234.034 146.492 237.342 156.674 241.046C157.568 233.784 158.726 226.497 160.145 219.199C192.485 52.89 348.148 -56.776 507.828 -25.75Z" fill="white"/>
</g>
<path fill-rule="evenodd" clip-rule="evenodd" d="M230.62 640.63H246.292V543.938H230.62V640.63Z" fill="black"/>
<path fill-rule="evenodd" clip-rule="evenodd" d="M184.721 454.377H271.295C292.937 454.377 310.48 471.692 310.48 493.052V547.932H145.537V493.052C145.537 471.692 163.08 454.377 184.721 454.377" fill="#FCC8B2"/>
<path fill-rule="evenodd" clip-rule="evenodd" d="M145.537 549.163V493.561C145.537 471.921 163.08 454.377 184.721 454.377C206.361 454.377 223.903 471.92 223.903 493.561V549.163H145.537" fill="white"/>
<path fill-rule="evenodd" clip-rule="evenodd" d="M145.537 548.097C146.048 548.097 146.462 547.683 146.462 547.173V492.737C146.462 472.094 163.625 455.3 184.722 455.3C205.818 455.3 222.982 472.094 222.982 492.737V547.172C222.982 547.682 223.394 548.095 223.903 548.095C224.415 548.095 224.828 547.682 224.828 547.172V492.737C224.828 471.075 206.836 453.453 184.721 453.453C162.606 453.453 144.613 471.076 144.613 492.737V547.172C144.613 547.682 145.028 548.095 145.537 548.095" fill="#343434"/>
<path fill-rule="evenodd" clip-rule="evenodd" d="M199.682 454.377H205.272C222.025 459.357 234.238 474.497 234.238 492.359V547.932C234.238 548.271 233.965 548.547 233.624 548.547C233.285 548.547 233.009 548.271 233.009 547.932V492.359C233.009 473.244 218.554 457.345 199.682 454.377V454.377ZM266.052 454.377H271.295L271.625 454.387C288.404 459.412 300.645 474.76 300.645 492.866V549.163H299.414V492.866C299.414 473.487 284.94 457.37 266.052 454.377" fill="white"/>
<path fill-rule="evenodd" clip-rule="evenodd" d="M222.038 548.888H310.48V541.7H222.038V548.888Z" fill="black"/>
<path fill-rule="evenodd" clip-rule="evenodd" d="M235.195 640.63C235.554 640.63 235.847 640.418 235.847 640.156V541.499C235.847 541.241 235.554 541.031 235.195 541.031C234.833 541.031 234.54 541.241 234.54 541.499V640.156C234.54 640.418 234.833 640.63 235.195 640.63Z" fill="#FCC8B2"/>
<path fill-rule="evenodd" clip-rule="evenodd" d="M220.919 548.417V494.397C220.919 473.975 204.681 457.363 184.721 457.363C164.759 457.363 148.524 473.975 148.524 494.397V548.417H220.92" fill="#343434"/>
<path fill-rule="evenodd" clip-rule="evenodd" d="M166.255 548.032H188.262C190.772 548.032 192.807 550.068 192.807 552.578C192.807 555.09 190.772 557.123 188.262 557.123L187.862 557.103L167.131 557.123V557.037C166.846 557.093 166.554 557.123 166.255 557.123C163.743 557.123 161.709 555.09 161.709 552.578C161.709 550.068 163.743 548.032 166.255 548.032Z" fill="#343434"/>
<path fill-rule="evenodd" clip-rule="evenodd" d="M183.717 552.578C183.717 555.09 185.75 557.123 188.262 557.123C190.772 557.123 192.807 555.09 192.807 552.578C192.807 550.068 190.772 548.032 188.262 548.032C185.75 548.032 183.717 550.068 183.717 552.578Z" fill="#FCC8B2"/>
<path fill-rule="evenodd" clip-rule="evenodd" d="M186.721 552.578C186.721 553.429 187.413 554.118 188.262 554.118C189.112 554.118 189.799 553.429 189.799 552.578C189.799 551.728 189.111 551.038 188.262 551.038C187.412 551.038 186.722 551.728 186.722 552.578" fill="white"/>
<path fill-rule="evenodd" clip-rule="evenodd" d="M131.544 541.457H226.515V536.294C226.515 533.718 228.605 532.247 231.18 532.247C233.756 532.247 235.847 534.332 235.847 536.912V549.162H131.544C129.585 549.162 128 547.574 128 545.617C128 543.66 129.585 541.457 131.544 541.457" fill="black"/>
<path fill-rule="evenodd" clip-rule="evenodd" d="M229.829 537.221C229.829 538.071 230.519 538.761 231.368 538.761C232.215 538.761 232.905 538.071 232.905 537.221C232.905 536.371 232.215 535.681 231.368 535.681C230.518 535.681 229.828 536.371 229.828 537.221" fill="white"/>
<path fill-rule="evenodd" clip-rule="evenodd" d="M256.305 523.106H257.908V435.677H256.305V523.106Z" fill="#FE5814"/>
<path fill-rule="evenodd" clip-rule="evenodd" d="M257.324 448.277L274.707 441.976L257.324 435.677V448.277Z" fill="#FE5814"/>
<path fill-rule="evenodd" clip-rule="evenodd" d="M253.263 523.429C253.263 525.749 255.141 527.626 257.46 527.626C259.78 527.626 261.658 525.748 261.658 523.429C261.658 521.111 259.78 519.232 257.46 519.232C255.141 519.232 253.263 521.112 253.263 523.429Z" fill="white"/>
<path fill-rule="evenodd" clip-rule="evenodd" d="M255.348 523.429C255.348 524.596 256.295 525.543 257.46 525.543C258.627 525.543 259.572 524.596 259.572 523.429C259.572 522.264 258.627 521.319 257.46 521.319C256.295 521.319 255.348 522.264 255.348 523.429" fill="#FCC8B2"/>
<mask id="mask0" mask-type="alpha" maskUnits="userSpaceOnUse" x="154" y="457" width="67" height="92">
<path d="M220.919 548.417V494.397C220.919 473.975 205.995 457.362 187.649 457.362C169.301 457.363 154.379 473.975 154.379 494.397V548.417H220.919" fill="white"/>
</mask>
<g mask="url(#mask0)">
<path fill-rule="evenodd" clip-rule="evenodd" d="M174.747 503.262L221.653 520.038L232.456 489.823L185.545 473.048L174.747 503.262Z" stroke="#FCC8B2" stroke-width="0.76"/>
<path fill-rule="evenodd" clip-rule="evenodd" d="M220.682 519.693L175.72 503.615L175.726 503.613L220.682 519.691V519.693Z" fill="#9FABE7"/>
<path fill-rule="evenodd" clip-rule="evenodd" d="M220.682 519.691L175.726 503.613L203.6 496.543L220.682 519.691Z" stroke="#FCC8B2" stroke-width="0.76"/>
<path fill-rule="evenodd" clip-rule="evenodd" d="M231.872 489.612L200.836 504.257L186.132 473.256L231.872 489.612Z" fill="#FE5814"/>
</g>
<path fill-rule="evenodd" clip-rule="evenodd" d="M153.307 537.344L200.284 520.769L189.605 490.509L142.625 507.087L153.307 537.344Z" fill="#343434" stroke="#FCC8B2" stroke-width="0.76"/>
<path fill-rule="evenodd" clip-rule="evenodd" d="M154.283 537.004L171.456 513.928L199.313 521.113L154.283 537.004Z" fill="#343434" stroke="#FCC8B2" stroke-width="0.76"/>
<path fill-rule="evenodd" clip-rule="evenodd" d="M189.019 490.715L174.179 521.656L143.212 506.882L189.019 490.715Z" fill="#FE5814"/>
<path fill-rule="evenodd" clip-rule="evenodd" d="M277.593 160.808L307.284 164.335L309.532 145.046L279.84 141.521L277.593 160.808Z" stroke="#FCC8B2" stroke-width="0.76"/>
<path fill-rule="evenodd" clip-rule="evenodd" d="M278.353 160.935L293.738 152.928L306.871 164.335L278.353 160.935Z" stroke="#FCC8B2" stroke-width="0.76"/>
<path fill-rule="evenodd" clip-rule="evenodd" d="M309.152 144.971L293.005 157.871L280.255 141.521L309.152 144.971Z" fill="#FE5814"/>
<path fill-rule="evenodd" clip-rule="evenodd" d="M179.088 194.953L214.055 217.415L228.518 194.889L193.55 172.428L179.088 194.953Z" stroke="#FCC8B2" stroke-width="0.76"/>
<path fill-rule="evenodd" clip-rule="evenodd" d="M179.811 195.42L203.803 194.923L213.33 216.95L179.811 195.42Z" stroke="#FCC8B2" stroke-width="0.76"/>
<path fill-rule="evenodd" clip-rule="evenodd" d="M228.085 194.611L200.107 200.672L193.986 172.709L228.085 194.611Z" fill="#FE5814"/>
<path fill-rule="evenodd" clip-rule="evenodd" d="M194.955 313.577L255.265 334.148L268.574 294.58L208.261 274.011L194.955 313.577Z" stroke="#FCC8B2" stroke-width="0.76"/>
<path fill-rule="evenodd" clip-rule="evenodd" d="M196.992 314.199L232.448 304.272L254.62 333.863L196.992 314.199Z" stroke="#FCC8B2" stroke-width="0.76"/>
<path fill-rule="evenodd" clip-rule="evenodd" d="M268.745 294.321L229.34 314.161L210.029 274.294L268.745 294.321Z" fill="#FE5814"/>
<path fill-rule="evenodd" clip-rule="evenodd" d="M243.59 94.556L264.853 98.11L267.164 84.553L245.901 81L243.59 94.556Z" stroke="#FCC8B2" stroke-width="0.76"/>
<path fill-rule="evenodd" clip-rule="evenodd" d="M244.35 94.75L255.57 89.745L264.503 98.11L244.35 94.75Z" stroke="#FCC8B2" stroke-width="0.76"/>
<path fill-rule="evenodd" clip-rule="evenodd" d="M266.784 84.411L254.564 92.787L245.871 81L266.784 84.411Z" fill="#FE5814"/>
<defs>
<clipPath id="clip0">
<rect width="360" height="694" fill="white" transform="translate(-37)"/>
</clipPath>
</defs>
</svg>
