<svg width="1194" height="360" viewBox="0 0 1194 360" fill="none" xmlns="http://www.w3.org/2000/svg">
<path d="M944.5 44C948.642 44 952 40.6421 952 36.5C952 32.3579 948.642 29 944.5 29C940.358 29 937 32.3579 937 36.5C937 40.6421 940.358 44 944.5 44Z" fill="black"/>
<path d="M144.5 360C148.642 360 152 356.642 152 352.5C152 348.358 148.642 345 144.5 345C140.358 345 137 348.358 137 352.5C137 356.642 140.358 360 144.5 360Z" fill="black"/>
<path d="M545.5 42C549.642 42 553 38.6421 553 34.5C553 30.3579 549.642 27 545.5 27C541.358 27 538 30.3579 538 34.5C538 38.6421 541.358 42 545.5 42Z" fill="black"/>
<path d="M545.5 360C549.642 360 553 356.642 553 352.5C553 348.358 549.642 345 545.5 345C541.358 345 538 348.358 538 352.5C538 356.642 541.358 360 545.5 360Z" fill="black"/>
<path d="M144.5 44C148.642 44 152 40.6421 152 36.5C152 32.3579 148.642 29 144.5 29C140.358 29 137 32.3579 137 36.5C137 40.6421 140.358 44 144.5 44Z" fill="black"/>
<path d="M944.5 360C948.642 360 952 356.642 952 352.5C952 348.358 948.642 345 944.5 345C940.358 345 937 348.358 937 352.5C937 356.642 940.358 360 944.5 360Z" fill="black"/>
<path d="M1 37.506C540.08 33.798 884.402 34.205 1033.97 38.726C1258.32 45.506 1224.63 352.506 1053.56 352.006C939.518 351.673 589.172 352.079 2.523 353.226" stroke="black" stroke-width="3"/>
<g filter="url(#filter0_d)">
<path d="M658.858 15.4987C659.268 15.0886 659.886 14.9571 660.431 15.1721L708.178 33.9917C708.737 34.213 709.104 34.754 709.104 35.3564C709.104 35.9575 708.737 36.4977 708.176 36.7197L660.43 55.5401C659.859 55.7656 659.209 55.6108 658.8 55.1533C658.392 54.6958 658.312 54.0318 658.6 53.4895L665.638 40.2482C667.267 37.1857 667.268 33.5278 665.638 30.4647L658.6 17.2234C658.312 16.681 658.392 16.017 658.8 15.5596L658.857 15.4994L658.858 15.4987Z" fill="#FD9714"/>
<path d="M660.431 55.5393L708.178 36.7197C708.737 36.4984 709.104 35.9574 709.104 35.355L666.861 35.3557C666.861 37.0358 666.454 38.7159 665.639 40.2474L658.601 53.4887C658.313 54.0311 658.393 54.6951 658.801 55.1525C659.21 55.61 659.86 55.7649 660.431 55.5386L660.431 55.5393Z" fill="#FE5814"/>
<path d="M674.356 33.8905L686.618 33.8905C687.426 33.8912 688.082 34.5474 688.082 35.3549C688.081 36.1646 687.426 36.8201 686.617 36.8201L674.356 36.8201C673.547 36.8208 672.891 36.1646 672.892 35.3564C672.891 34.5467 673.547 33.8905 674.357 33.8912L674.356 33.8905Z" fill="#FFC679"/>
<path d="M672.891 35.3557C672.891 36.1646 673.547 36.8208 674.356 36.8208L686.618 36.8208C687.426 36.8201 688.082 36.1639 688.082 35.3564L672.892 35.3549L672.891 35.3557Z" fill="#FD9714"/>
</g>
<defs>
<filter id="filter0_d" x="644.428" y="10.0698" width="68.6758" height="58.5726" filterUnits="userSpaceOnUse" color-interpolation-filters="sRGB">
<feFlood flood-opacity="0" result="BackgroundImageFix"/>
<feColorMatrix in="SourceAlpha" type="matrix" values="0 0 0 0 0 0 0 0 0 0 0 0 0 0 0 0 0 0 127 0"/>
<feOffset dx="-5" dy="4"/>
<feGaussianBlur stdDeviation="4.5"/>
<feColorMatrix type="matrix" values="0 0 0 0 1 0 0 0 0 0.776648 0 0 0 0 0.475934 0 0 0 0.610632 0"/>
<feBlend mode="normal" in2="BackgroundImageFix" result="effect1_dropShadow"/>
<feBlend mode="normal" in="SourceGraphic" in2="effect1_dropShadow" result="shape"/>
</filter>
</defs>
</svg>
