<svg xmlns="http://www.w3.org/2000/svg" xmlns:xlink="http://www.w3.org/1999/xlink" width="183" height="561" viewBox="0 0 183 561">
    <defs>
        <path id="prefix__a" d="M66.874 91.345v-54.02C66.874 16.903 51.95.29 33.604.29 15.256.291.334 16.903.334 37.325v54.02h66.54"/>
    </defs>
    <g fill="none" fill-rule="evenodd">
        <g>
            <path fill="#000" d="M102.62 204.953L118.292 204.953 118.292 108.261 102.62 108.261z" transform="translate(0 1) translate(0 354.677)"/>
            <path fill="#FCC8B2" d="M56.721 18.7h86.574c21.642 0 39.185 17.315 39.185 38.675v54.88H17.537v-54.88c0-21.36 17.543-38.675 39.184-38.675" transform="translate(0 1) translate(0 354.677)"/>
            <path fill="#FFF" d="M17.537 113.486V57.884c0-21.64 17.543-39.184 39.184-39.184 21.64 0 39.182 17.543 39.182 39.184v55.602H17.537" transform="translate(0 1) translate(0 354.677)"/>
            <path fill="#343434" d="M17.537 112.42c.511 0 .925-.414.925-.924V57.06c0-20.643 17.163-37.437 38.26-37.437 21.096 0 38.26 16.794 38.26 37.437v54.435c0 .51.412.923.921.923.512 0 .925-.413.925-.923V57.06c0-21.662-17.992-39.284-40.107-39.284S16.613 35.399 16.613 57.06v54.435c0 .51.415.923.924.923" transform="translate(0 1) translate(0 354.677)"/>
            <path fill="#FFF" d="M71.682 18.7h5.59c16.753 4.98 28.966 20.12 28.966 37.982v55.573c0 .339-.273.615-.614.615-.339 0-.615-.276-.615-.615V56.682c0-19.115-14.455-35.014-33.327-37.982M138.052 18.7h5.243l.33.01c16.779 5.025 29.02 20.373 29.02 38.479v56.297h-1.231V57.189c0-19.379-14.474-35.496-33.362-38.489" transform="translate(0 1) translate(0 354.677)"/>
            <path fill="#000" d="M94.038 113.211L182.48 113.211 182.48 106.023 94.038 106.023z" transform="translate(0 1) translate(0 354.677)"/>
            <path fill="#FCC8B2" d="M107.195 204.953c.359 0 .652-.212.652-.474v-98.657c0-.258-.293-.468-.652-.468-.362 0-.655.21-.655.468v98.657c0 .262.293.474.655.474" transform="translate(0 1) translate(0 354.677)"/>
            <path fill="#343434" d="M92.919 112.74V58.72c0-20.422-16.238-37.034-36.198-37.034-19.962 0-36.197 16.612-36.197 37.034v54.02H92.92" transform="translate(0 1) translate(0 354.677)"/>
            <path fill="#343434" d="M38.255 112.355h22.007c2.51 0 4.545 2.036 4.545 4.546 0 2.512-2.035 4.545-4.545 4.545l-.4-.02-20.731.02v-.086c-.285.056-.577.086-.876.086-2.512 0-4.546-2.033-4.546-4.545 0-2.51 2.034-4.546 4.546-4.546" transform="translate(0 1) translate(0 354.677)"/>
            <path fill="#FCC8B2" d="M55.717 116.901c0 2.512 2.033 4.545 4.545 4.545 2.51 0 4.545-2.033 4.545-4.545 0-2.51-2.035-4.546-4.545-4.546-2.512 0-4.545 2.036-4.545 4.546" transform="translate(0 1) translate(0 354.677)"/>
            <path fill="#FFF" d="M58.721 116.901c0 .851.692 1.54 1.541 1.54.85 0 1.537-.689 1.537-1.54 0-.85-.688-1.54-1.537-1.54-.85 0-1.54.69-1.54 1.54" transform="translate(0 1) translate(0 354.677)"/>
            <path fill="#000" d="M3.544 105.78h94.971v-5.163c0-2.576 2.09-4.047 4.665-4.047 2.576 0 4.667 2.085 4.667 4.665v12.25H3.544c-1.959 0-3.544-1.588-3.544-3.545 0-1.957 1.585-4.16 3.544-4.16" transform="translate(0 1) translate(0 354.677)"/>
            <path fill="#FFF" d="M101.829 101.544c0 .85.69 1.54 1.539 1.54.847 0 1.537-.69 1.537-1.54 0-.85-.69-1.54-1.537-1.54-.85 0-1.54.69-1.54 1.54" transform="translate(0 1) translate(0 354.677)"/>
            <path fill="#FE5814" d="M128.305 87.429L129.908 87.429 129.908 0 128.305 0z" transform="translate(0 1) translate(0 354.677)"/>
            <path fill="#FE5814" d="M129.324 12.6L146.707 6.299 129.324 0 129.324 12.6" transform="translate(0 1) translate(0 354.677)"/>
            <path fill="#FFF" d="M125.263 87.752c0 2.32 1.878 4.197 4.197 4.197 2.32 0 4.198-1.878 4.198-4.197 0-2.318-1.878-4.197-4.198-4.197-2.319 0-4.197 1.88-4.197 4.197" transform="translate(0 1) translate(0 354.677)"/>
            <path fill="#FCC8B2" d="M127.348 87.752c0 1.167.947 2.114 2.112 2.114 1.167 0 2.112-.947 2.112-2.114 0-1.165-.945-2.11-2.112-2.11-1.165 0-2.112.945-2.112 2.11" transform="translate(0 1) translate(0 354.677)"/>
            <g transform="translate(0 1) translate(0 354.677) translate(26.045 21.395)">
                <mask id="prefix__b" fill="#fff">
                    <use xlink:href="#prefix__a"/>
                </mask>
                <path stroke="#FCC8B2" stroke-width=".76" d="M20.702 46.19L67.608 62.966 78.411 32.751 31.5 15.976 20.702 46.19" mask="url(#prefix__b)"/>
                <path fill="#9FABE7" d="M66.637 62.621L21.675 46.543 21.681 46.541 66.637 62.619 66.637 62.621" mask="url(#prefix__b)"/>
                <path stroke="#FCC8B2" stroke-width=".76" d="M66.637 62.619L21.681 46.541 49.555 39.471 66.637 62.619" mask="url(#prefix__b)"/>
                <path fill="#FE5814" d="M77.827 32.54L46.791 47.185 32.087 16.184 77.827 32.54" mask="url(#prefix__b)"/>
            </g>
            <path fill="#343434" stroke="#FCC8B2" stroke-width=".76" d="M25.307 101.667L72.284 85.092 61.605 54.832 14.625 71.41 25.307 101.667" transform="translate(0 1) translate(0 354.677)"/>
            <path fill="#343434" stroke="#FCC8B2" stroke-width=".76" d="M26.283 101.327L43.456 78.251 71.313 85.436 26.283 101.327" transform="translate(0 1) translate(0 354.677)"/>
            <path fill="#FE5814" d="M61.019 55.038L46.179 85.979 15.212 71.205 61.019 55.038" transform="translate(0 1) translate(0 354.677)"/>
        </g>
        <g>
            <path stroke="#FCC8B2" stroke-width=".76" d="M0.163 19.352L29.854 22.879 32.102 3.59 2.41 0.065 0.163 19.352" transform="translate(0 1) translate(149.43 60.456)"/>
            <path stroke="#FCC8B2" stroke-width=".76" d="M0.923 19.479L16.308 11.472 29.441 22.879 0.923 19.479" transform="translate(0 1) translate(149.43 60.456)"/>
            <path fill="#FE5814" d="M31.722 3.515L15.575 16.415 2.825 0.065 31.722 3.515" transform="translate(0 1) translate(149.43 60.456)"/>
        </g>
        <g>
            <path stroke="#FCC8B2" stroke-width=".76" d="M0 26.585L41.274 31.445 44.399 4.859 3.124 0 0 26.585" transform="translate(0 1) rotate(26 -163.673 180.913)"/>
            <path stroke="#FCC8B2" stroke-width=".76" d="M0.854 26.688L22.2 15.723 40.419 31.345 0.854 26.688" transform="translate(0 1) rotate(26 -163.673 180.913)"/>
            <path fill="#FE5814" d="M43.888 4.798L21.398 22.511 3.639 0.061 43.888 4.798" transform="translate(0 1) rotate(26 -163.673 180.913)"/>
        </g>
        <g>
            <path stroke="#FCC8B2" stroke-width=".76" d="M0.19 41.658L63.459 49.24 68.251 7.769 4.979 0.19 0.19 41.658" transform="translate(0 1) rotate(12 -874.666 454.73)"/>
            <path stroke="#FCC8B2" stroke-width=".76" d="M2.312 41.842L34.929 24.761 62.769 49.095 2.312 41.842" transform="translate(0 1) rotate(12 -874.666 454.73)"/>
            <path fill="#FE5814" d="M68.364 7.481L33.945 35.08 6.767 0.099 68.364 7.481" transform="translate(0 1) rotate(12 -874.666 454.73)"/>
        </g>
        <g>
            <path stroke="#FCC8B2" stroke-width=".76" d="M0 13.556L21.263 17.11 23.574 3.553 2.311 0 0 13.556" transform="translate(0 1) translate(115.59)"/>
            <path stroke="#FCC8B2" stroke-width=".76" d="M0.76 13.75L11.98 8.745 20.913 17.11 0.76 13.75" transform="translate(0 1) translate(115.59)"/>
            <path fill="#FE5814" d="M23.194 3.411L10.974 11.787 2.281 0 23.194 3.411" transform="translate(0 1) translate(115.59)"/>
        </g>
    </g>
</svg>
