<svg width="1440" height="566" viewBox="0 0 1440 566" fill="none" xmlns="http://www.w3.org/2000/svg">
<g clip-path="url(#clip0)">
<path d="M1462.12 341.734C1492.46 349.863 1510.93 379.314 1503.37 407.517C1498.66 425.109 1484.93 438.06 1467.91 443.341C1468.61 452.446 1467.81 461.763 1465.33 471.001C1459.43 493.016 1445.06 510.652 1426.29 521.734L1334.99 862.481L768.079 712.314C752.691 713.767 736.616 713.057 720.359 709.898C696.178 705.2 674.403 695.632 656.217 682.681L644.788 679.653C646.334 678.993 647.936 678.339 649.593 677.688C644.111 673.318 639.005 668.626 634.313 663.658C608.794 696.355 561.72 713.521 512.686 703.993C449.887 691.792 406.478 640.201 411.826 586.369C397.139 594.679 380.411 599.529 362.998 600.152C399.322 634.182 424.648 662.489 438.977 685.07L-250.075 497.963L-123.315 24.883C-143.878 13.623 -154.822 -10.962 -148.363 -35.064C-140.807 -63.266 -112.285 -80.128 -84.658 -72.725C-58.303 -65.663 -42.283 -39.071 -47.425 -12.153C-39.291 -12.753 -30.951 -12.023 -22.673 -9.80501C18.497 1.22599 42.564 44.902 31.084 87.748C29.28 94.481 26.7051 100.792 23.4871 106.606C27.6111 107.12 31.755 107.926 35.893 109.035C80.356 120.948 107.984 163.55 100.05 206.073C119.884 198.197 141.822 196.36 163.38 202.136C220.258 217.376 252.937 279.853 236.37 341.681C232.665 355.511 226.81 368.136 219.315 379.234L219.755 379.34L220.941 379.648C247.434 386.747 266.865 406.759 273.746 430.612C299.102 398.457 342.556 382.764 385.243 394.202C438.191 408.389 471.292 459.319 463.539 511.352C488.597 497.499 520.201 492.107 552.664 498.414C576.402 503.026 597.37 513.267 613.98 527.129C641.188 480.043 702.995 453.822 767.711 466.396C822.715 477.083 865.268 512.966 881.457 556.554C903.249 537.454 939.277 530.024 975.923 539.844C979.591 540.826 983.167 541.956 986.643 543.22C986.946 540.741 987.342 538.254 987.826 535.762C998.866 478.992 1052 441.557 1106.5 452.146C1131.32 456.969 1152.15 470.924 1166.43 490.056C1184.94 457.419 1225.1 440.313 1264.67 450.914C1271.26 452.68 1277.48 455.12 1283.27 458.133C1281.27 446.587 1281.67 434.551 1284.86 422.643C1297.36 376.001 1347.89 349.016 1397.73 362.369C1398.61 362.606 1399.48 362.853 1400.35 363.112C1412.97 344.486 1437.67 335.182 1462.12 341.734V341.734ZM251.93 502.448L251.486 502.827L252.007 503.331L251.93 502.448V502.448Z" fill="#FE5814"/>
<g clip-path="url(#clip1)">
<path d="M1428.55 481.176C1460.79 494.861 1476.62 530.228 1463.91 560.17C1455.98 578.848 1438.82 591.003 1419.2 594.184C1418.57 604.338 1416.25 614.494 1412.08 624.304C1402.16 647.674 1383.57 664.897 1361.13 674.207L1207.66 1035.75L605.522 782.188C588.075 781.46 570.184 778.169 552.474 772.071C526.252 763.042 503.506 748.918 485.343 731.576L474.049 726.82C475.739 726.366 477.483 725.923 479.279 725.491C473.919 719.829 469.019 713.871 464.618 707.675C431.378 739.783 376.739 751.405 324.068 733.269C256.612 710.042 216.665 646.371 230.901 587.806C213.523 594.642 194.451 597.402 175.266 595.465C209.975 638.557 233.474 673.653 245.764 700.755L-485.916 387.278L-272.834 -114.712C-294.001 -130.284 -302.402 -159.252 -291.492 -184.954C-278.782 -214.896 -244.677 -229.067 -215.316 -216.604C-187.306 -204.714 -173.733 -172.882 -183.578 -143.981C-174.504 -143.379 -165.408 -141.278 -156.608 -137.543C-112.856 -118.971 -93.04 -67.039 -112.348 -21.549C-115.383 -14.401 -119.203 -7.837 -123.656 -1.923C-119.182 -0.714004 -114.731 0.818998 -110.334 2.685C-63.08 22.744 -39.165 74.045 -54.509 119.731C-31.389 114.123 -6.87902 115.506 16.031 125.231C76.48 150.889 102.895 224.904 75.0309 290.548C68.7979 305.231 60.378 318.251 50.384 329.331L50.8539 329.516L52.116 330.04C80.273 341.992 98.632 367.095 102.538 394.484C135.513 362.945 185.927 352.386 231.292 371.642C287.564 395.528 316.232 456.868 299.617 513.076C329.431 501.686 365.164 500.649 400.035 512.656C425.533 521.436 447.101 535.994 463.297 553.872C500.629 506.148 572.938 486.826 642.454 510.762C701.537 531.106 742.971 577.313 754.101 627.923C781.121 610.236 822.054 607.64 861.001 624.173C864.899 625.827 868.673 627.629 872.314 629.563C873.034 626.877 873.856 624.193 874.777 621.519C895.754 560.599 960.22 527.553 1018.76 547.711C1045.43 556.892 1066.27 575.528 1079.07 598.857C1104.56 565.724 1151.56 553.095 1193.61 570.943C1200.61 573.915 1207.1 577.573 1213.03 581.798C1212.61 568.749 1214.92 555.531 1220.28 542.888C1241.3 493.368 1301.28 471.449 1354.24 493.932C1355.18 494.33 1356.11 494.739 1357.03 495.16C1373.85 476.57 1402.56 470.145 1428.55 481.176V481.176Z" fill="#FFD8A3"/>
</g>
</g>
<defs>
<clipPath id="clip0">
<rect width="1440" height="566" fill="white"/>
</clipPath>
<clipPath id="clip1">
<rect width="1440" height="447" fill="white" transform="translate(0 119)"/>
</clipPath>
</defs>
</svg>
